<svg width="239" height="53" viewBox="0 0 239 53" fill="none" xmlns="http://www.w3.org/2000/svg">
<g filter="url(#filter0_d)">
<path d="M4.09375 44V2.75H9.01562L17.7578 27.5L17.3125 16.25V2.75H22.9609V44H18.5078L9.53125 18.3828L9.88281 29.2109V44H4.09375ZM35.1953 44.4453C31.0234 44.4453 28.9375 41.6406 28.9375 36.0312V8.84375H35.1719V35.0703C35.1719 36.5234 35.3516 37.6016 35.7109 38.3047C36.0703 38.9922 36.7422 39.3359 37.7266 39.3359C39.6172 39.3359 40.5625 37.9297 40.5625 35.1172L40.5859 8.84375H46.7734V44H40.5625V40.3438C39.5781 43.0781 37.7891 44.4453 35.1953 44.4453ZM76.0938 44V17C76.0938 14.6719 75.3047 13.5078 73.7266 13.5078C72.7734 13.5078 72.0391 13.8359 71.5234 14.4922C71.0078 15.1484 70.75 16.0938 70.75 17.3281V44H64.5391V16.9531C64.5391 14.6562 63.7734 13.5078 62.2422 13.5078C61.2266 13.5078 60.4609 13.8984 59.9453 14.6797C59.4453 15.4453 59.1953 16.4375 59.1953 17.6562V44H52.9844V8.84375H59.1953V12.6641C59.5547 11.3516 60.2031 10.3203 61.1406 9.57031C62.0781 8.80469 63.3047 8.42188 64.8203 8.42188C67.4141 8.42188 69.1484 9.60156 70.0234 11.9609C71.2891 9.60156 73.2812 8.42188 76 8.42188C78.2031 8.42188 79.7969 9.15625 80.7812 10.625C81.7812 12.0938 82.2812 14.2422 82.2812 17.0703V44H76.0938ZM97.8672 44V14.7031H95.1484V10.2266H97.8906V8.39844C97.8906 6.42969 98.3984 4.90625 99.4141 3.82812C100.445 2.73437 101.812 2.1875 103.516 2.1875C105.219 2.1875 106.594 2.38281 107.641 2.77344V6.66406C107.172 6.60156 106.625 6.57031 106 6.57031C104.719 6.57031 104.078 7.24219 104.078 8.58594V10.2266H107.641V14.7031H104.078V44H97.8672ZM111.953 44V8.84375H118.164V44H111.953ZM111.883 5.60938V0.21875H118.141V5.60938H111.883ZM136.234 8.42188C140.297 8.42188 142.328 11.0547 142.328 16.3203V44H136.117V16.6953C136.117 15.6797 135.883 14.8828 135.414 14.3047C134.961 13.7266 134.297 13.4375 133.422 13.4375C132.547 13.4375 131.852 13.8125 131.336 14.5625C130.836 15.3125 130.586 16.3203 130.586 17.5859V44H124.375V8.84375H130.586V12.875C130.898 11.625 131.57 10.5703 132.602 9.71094C133.633 8.85156 134.844 8.42188 136.234 8.42188ZM159.039 24.9219C157.07 25.7969 155.742 26.625 155.055 27.4062C154.367 28.1875 154.023 29.3984 154.023 31.0391V34.8125C154.023 36.4531 154.195 37.6328 154.539 38.3516C154.883 39.0547 155.438 39.4062 156.203 39.4062C156.984 39.4062 157.617 39.1484 158.102 38.6328C158.602 38.1016 158.914 37.5078 159.039 36.8516V24.9219ZM154.141 44.3516C151.844 44.3516 150.203 43.5312 149.219 41.8906C148.234 40.2344 147.727 37.8594 147.695 34.7656V32.5156C147.695 29.5156 148.508 27.2422 150.133 25.6953C151.18 24.6797 152.953 23.6953 155.453 22.7422C155.906 22.5703 156.531 22.3359 157.328 22.0391C158.141 21.7422 158.711 21.5312 159.039 21.4062V18.3359C159.039 16.4297 158.898 15.1406 158.617 14.4688C158.352 13.7812 157.727 13.4375 156.742 13.4375C155.773 13.4375 155.125 13.7969 154.797 14.5156C154.469 15.2344 154.305 16.4453 154.305 18.1484V19.7188H148.164V18.6641C148.164 15.3359 148.781 12.7969 150.016 11.0469C151.266 9.29688 153.469 8.42188 156.625 8.42188C159.797 8.42188 162.047 9.29688 163.375 11.0469C164.719 12.7969 165.391 15.4219 165.391 18.9219V44H159.133V40.5078C158.82 41.5859 158.219 42.5 157.328 43.25C156.453 43.9844 155.391 44.3516 154.141 44.3516ZM183.156 8.42188C187.219 8.42188 189.25 11.0547 189.25 16.3203V44H183.039V16.6953C183.039 15.6797 182.805 14.8828 182.336 14.3047C181.883 13.7266 181.219 13.4375 180.344 13.4375C179.469 13.4375 178.773 13.8125 178.258 14.5625C177.758 15.3125 177.508 16.3203 177.508 17.5859V44H171.297V8.84375H177.508V12.875C177.82 11.625 178.492 10.5703 179.523 9.71094C180.555 8.85156 181.766 8.42188 183.156 8.42188ZM203.688 44.4219C200.172 44.4219 197.789 43.3828 196.539 41.3047C195.305 39.2266 194.688 36.2188 194.688 32.2812V20.8906C194.688 15.7812 195.578 12.3359 197.359 10.5547C198.781 9.13281 200.93 8.42188 203.805 8.42188C206.68 8.42188 208.758 9.29688 210.039 11.0469C211.32 12.7812 211.961 15.2891 211.961 18.5703V22.4375H205.961V18.3594C205.961 16.2188 205.766 14.875 205.375 14.3281C205 13.7812 204.359 13.5078 203.453 13.5078C202.547 13.5078 201.898 13.9141 201.508 14.7266C201.133 15.5391 200.945 16.7812 200.945 18.4531V34.2969C200.945 36.0312 201.117 37.3047 201.461 38.1172C201.82 38.9297 202.508 39.3359 203.523 39.3359C204.914 39.3203 205.703 38.3438 205.891 36.4062C205.938 35.9531 205.961 35.4219 205.961 34.8125C205.961 34.6562 205.961 34.4922 205.961 34.3203V30.1484H211.961V33.7109C211.961 37.1484 211.32 39.7969 210.039 41.6562C208.758 43.5 206.641 44.4219 203.688 44.4219ZM225.531 44.4219C221.578 44.4219 219.031 42.9141 217.891 39.8984C217.172 37.9766 216.812 35.4453 216.812 32.3047V19.2031C216.812 12.0156 219.805 8.42188 225.789 8.42188C228.977 8.42188 231.18 9.36719 232.398 11.2578C233.633 13.1484 234.25 15.8359 234.25 19.3203V26.8438H223.07V33.7578C223.07 36.1953 223.281 37.75 223.703 38.4219C224.125 39.0781 224.758 39.4062 225.602 39.4062C226.445 39.4062 226.992 39.2109 227.242 38.8203C227.664 38.1328 227.906 37.4297 227.969 36.7109C228.031 35.9922 228.062 35.0078 228.062 33.7578V30.6641H234.203V32.5391C234.203 35.7266 233.953 38.0156 233.453 39.4062C232.953 40.7969 232.375 41.8047 231.719 42.4297C230.344 43.7578 228.281 44.4219 225.531 44.4219ZM223.047 23.2109H228.062V18.7109C228.062 16.7891 227.906 15.4141 227.594 14.5859C227.297 13.7422 226.68 13.3203 225.742 13.3203C225.727 13.3203 225.719 13.3203 225.719 13.3203C224.094 13.3203 223.219 14.5625 223.094 17.0469C223.062 17.5156 223.047 18.125 223.047 18.875V23.2109Z" fill="black"/>
</g>
<defs>
<filter id="filter0_d" x="0.09375" y="0.21875" width="238.156" height="52.2266" filterUnits="userSpaceOnUse" color-interpolation-filters="sRGB">
<feFlood flood-opacity="0" result="BackgroundImageFix"/>
<feColorMatrix in="SourceAlpha" type="matrix" values="0 0 0 0 0 0 0 0 0 0 0 0 0 0 0 0 0 0 127 0"/>
<feOffset dy="4"/>
<feGaussianBlur stdDeviation="2"/>
<feColorMatrix type="matrix" values="0 0 0 0 0 0 0 0 0 0 0 0 0 0 0 0 0 0 0.25 0"/>
<feBlend mode="normal" in2="BackgroundImageFix" result="effect1_dropShadow"/>
<feBlend mode="normal" in="SourceGraphic" in2="effect1_dropShadow" result="shape"/>
</filter>
</defs>
</svg>
